<svg class="img-fluid" id="outputsvg" xmlns="http://www.w3.org/2000/svg" style="transform: matrix(1, 0, 0, 1, 0, 0); transform-origin: 50% 50%; cursor: move; max-height: none; transition: transform 200ms ease-in-out;" width="1768" height="1832" viewBox="0 0 17680 18320"><g id="l3iPOG3rQ3OmcMQcz7CxZhd" fill="rgb(119,119,119)" style="transform: none;"><g style="transform: none;"><path id="phEyj6bfT" d="M8230 18050 c-63 -4 -162 -12 -220 -19 -58 -6 -154 -16 -215 -21 -60 -6 -137 -15 -170 -20 -33 -5 -96 -14 -140 -20 -177 -25 -271 -42 -288 -51 -10 -5 -22 -7 -27 -4 -5 3 -12 0 -15 -5 -4 -7 -19 -8 -36 -5 -16 4 -29 2 -29 -3 0 -5 -26 -15 -57 -20 -155 -28 -461 -97 -588 -132 -16 -4 -77 -21 -135 -36 -58 -16 -106 -32 -108 -36 -2 -4 -10 -4 -19 -1 -12 5 -14 3 -8 -6 5 -10 2 -11 -14 -6 -11 3 -21 2 -21 -3 0 -5 -35 -19 -77 -32 -214 -62 -533 -174 -543 -190 -3 -5 -14 -10 -25 -12 -11 -1 -22 -6 -25 -9 -3 -3 -54 -25 -115 -48 -60 -24 -126 -50 -145 -58 -19 -8 -44 -19 -55 -23 -21 -8 -361 -174 -550 -268 -60 -30 -117 -61 -126 -68 -16 -14 -298 -174 -308 -174 -3 -1 -37 -23 -76 -50 -38 -26 -115 -76 -170 -111 -151 -95 -198 -125 -220 -146 -11 -10 -60 -45 -110 -78 -49 -33 -92 -62 -95 -65 -3 -3 -21 -17 -40 -30 -19 -14 -72 -54 -116 -90 -45 -36 -105 -83 -134 -105 -29 -22 -96 -77 -149 -123 -53 -46 -134 -114 -181 -152 -47 -38 -100 -86 -117 -107 -17 -21 -73 -74 -124 -118 -84 -71 -157 -146 -481 -488 -47 -51 -108 -119 -134 -152 -26 -33 -77 -94 -114 -135 -36 -41 -88 -104 -115 -140 -27 -36 -91 -117 -141 -180 -50 -63 -117 -155 -148 -204 -32 -50 -77 -113 -100 -141 -22 -28 -74 -105 -114 -170 -40 -66 -104 -167 -141 -225 -38 -58 -94 -154 -126 -215 -31 -60 -65 -121 -75 -135 -37 -53 -111 -197 -201 -390 -29 -63 -57 -121 -63 -128 -18 -25 -58 -119 -143 -332 -46 -118 -97 -242 -113 -275 -25 -53 -120 -328 -120 -347 0 -5 3825 -8 8500 -8 4868 0 8500 4 8500 9 0 7 -66 205 -101 301 -7 19 -16 38 -21 41 -6 3 -9 8 -8 10 2 5 2 5 -93 245 -42 106 -112 268 -157 360 -45 93 -93 194 -107 224 -44 95 -90 184 -147 280 -30 51 -70 122 -88 158 -18 36 -37 71 -41 77 -9 11 -55 85 -187 300 -51 83 -114 177 -140 210 -25 33 -68 94 -95 135 -51 78 -68 100 -251 335 -218 280 -442 533 -714 805 -188 187 -374 363 -445 420 -24 19 -91 76 -149 125 -57 50 -128 109 -157 132 -30 23 -90 70 -134 105 -44 35 -132 100 -195 143 -63 43 -117 81 -120 84 -20 23 -112 86 -260 177 -52 32 -117 75 -145 95 -27 20 -97 63 -155 94 -58 32 -152 86 -210 120 -120 72 -242 135 -385 200 -54 25 -102 50 -105 54 -4 7 -87 48 -190 94 -19 8 -105 43 -190 77 -85 34 -157 66 -160 70 -6 10 -35 21 -290 109 -107 37 -233 78 -280 91 -47 12 -90 29 -97 37 -7 10 -20 12 -35 8 -14 -4 -18 -3 -11 2 8 6 -20 17 -75 32 -48 12 -98 26 -112 31 -61 19 -268 70 -370 91 -30 6 -71 15 -90 19 -19 4 -80 17 -135 28 -55 11 -118 27 -140 35 -37 14 -75 21 -250 47 -36 6 -93 14 -127 19 -129 20 -216 31 -323 41 -60 5 -150 15 -200 21 -49 6 -155 14 -235 19 -172 10 -996 10 -1160 0z m-1150 -1091 c19 -5 91 -45 160 -88 69 -44 166 -103 215 -132 99 -56 190 -112 275 -169 30 -20 120 -76 200 -124 80 -47 173 -106 207 -129 103 -70 173 -110 257 -148 88 -39 326 -160 419 -212 32 -18 60 -41 63 -52 3 -12 -12 -50 -41 -100 -25 -44 -45 -84 -45 -89 0 -8 -19 -6 -122 10 l-38 6 -1 -143 c0 -140 -4 -187 -15 -198 -6 -6 -148 -2 -229 7 l-60 7 -7 90 c-3 50 -11 167 -16 260 -6 94 -14 177 -17 186 -6 17 -129 108 -206 152 -37 22 -76 31 -195 48 -305 42 -308 42 -395 107 -43 31 -117 84 -165 117 -48 33 -134 95 -192 138 -57 42 -107 77 -112 77 -9 0 -262 190 -302 228 -26 24 -28 31 -28 113 0 75 2 88 18 91 19 4 317 -38 372 -53z m-1392 -230 c75 -39 146 -79 156 -90 17 -15 20 -36 24 -133 4 -105 3 -114 -14 -120 -11 -3 -89 -13 -174 -21 l-155 -16 -24 28 c-13 15 -80 90 -150 166 -119 130 -172 200 -161 210 4 4 280 40 348 46 8 0 75 -31 150 -70z m525 -621 c62 -57 195 -182 297 -278 102 -96 212 -200 245 -231 33 -31 129 -121 213 -200 173 -162 134 -101 313 -498 98 -215 97 -212 66 -356 -33 -152 -74 -307 -84 -315 -5 -4 -51 -41 -103 -83 -52 -43 -135 -112 -185 -155 l-90 -79 -3 -79 c-1 -43 -8 -187 -15 -319 l-13 -240 -118 -200 c-66 -110 -126 -208 -135 -217 -13 -14 -37 -18 -125 -20 l-109 -3 -9 30 c-13 45 -34 207 -78 605 -5 47 -12 100 -16 119 l-5 34 -102 -7 c-311 -19 -310 -19 -371 -56 -32 -19 -62 -44 -66 -55 -4 -11 -10 -77 -14 -147 l-7 -128 31 0 c18 0 68 9 112 20 l80 21 85 -77 c93 -85 116 -114 108 -135 -4 -11 -171 -115 -345 -214 -10 -6 -25 -16 -33 -23 -11 -9 -80 -12 -273 -10 l-258 3 -23 34 c-22 32 -45 63 -89 119 -11 15 -60 86 -108 157 -121 179 -117 175 -192 175 -73 0 -80 -9 -69 -91 5 -38 4 -49 -7 -50 -44 -2 -181 3 -293 11 l-130 10 -35 39 c-71 77 -237 267 -303 345 -38 45 -74 86 -80 91 -7 6 -41 44 -76 85 -36 41 -92 103 -125 138 l-60 62 -171 0 -170 0 -105 76 c-58 42 -148 105 -201 140 l-97 64 -5 162 c-4 90 -11 356 -16 591 l-11 428 -80 79 c-44 44 -80 84 -80 89 0 10 197 191 208 191 12 0 196 -63 387 -133 99 -36 205 -73 235 -82 30 -9 102 -32 160 -50 94 -30 124 -35 295 -45 105 -6 242 -13 305 -15 63 -2 183 -7 267 -11 l152 -6 25 53 c92 199 258 566 283 624 23 52 36 71 54 76 14 3 193 12 399 18 206 7 384 14 395 15 11 2 73 4 138 5 l119 1 111 -102z m9388 -1227 c63 -74 132 -157 153 -185 22 -28 79 -100 126 -161 48 -60 131 -173 185 -250 53 -77 105 -149 115 -160 9 -11 43 -63 75 -115 32 -52 91 -144 131 -205 39 -60 100 -162 134 -225 35 -63 80 -142 101 -175 61 -97 322 -637 389 -805 34 -85 80 -197 102 -247 44 -104 118 -316 118 -338 0 -13 -194 -15 -1545 -15 -1246 0 -1545 2 -1545 13 0 7 24 42 53 78 56 70 139 174 223 279 41 52 54 77 64 125 6 33 16 76 21 96 5 20 9 48 9 63 0 61 15 70 185 112 99 24 119 33 210 94 55 37 136 95 180 129 44 34 115 86 157 117 l78 55 2 737 3 736 40 14 c136 48 125 41 125 85 0 22 -4 54 -9 71 -5 17 -17 71 -26 120 -14 72 -14 90 -4 97 7 4 18 5 25 1 6 -4 62 -67 125 -141z m-11293 -2168 l3 -33 73 0 c80 0 92 -7 98 -55 3 -30 4 -30 55 -27 48 3 53 2 57 -20 3 -12 2 -48 -2 -78 -8 -62 -2 -60 -127 -45 -78 10 -95 19 -95 53 0 46 -13 54 -107 68 -144 21 -133 14 -133 93 0 46 4 71 13 75 6 2 46 4 87 3 l75 -2 3 -32z m2947 -53 l0 -85 -85 -3 c-46 -2 -90 -8 -97 -14 -8 -6 -13 -32 -13 -62 0 -61 -20 -371 -26 -404 -4 -18 -23 -32 -79 -58 l-74 -34 -773 1 c-425 1 -784 5 -798 9 l-25 8 28 1 c16 1 36 5 45 10 9 5 55 14 102 20 249 31 291 41 384 89 50 25 108 56 129 69 37 23 38 25 35 76 l-3 52 -55 3 c-107 5 -100 -5 -100 136 0 95 3 126 14 135 16 13 76 12 391 -7 l180 -12 108 -111 108 -112 77 -8 c42 -4 89 -8 105 -8 l27 -1 0 193 c0 107 3 197 7 201 4 3 93 5 197 4 l191 -3 0 -85z m-3411 11 c14 -6 26 -19 28 -33 2 -19 10 -24 48 -28 43 -5 45 -6 51 -44 6 -39 21 -56 50 -56 20 0 29 -20 29 -61 l0 -29 -90 0 -89 0 -83 86 c-68 70 -84 93 -89 125 -3 22 -3 41 -1 44 9 9 120 5 146 -4z m-228 -85 c3 -13 4 -38 2 -57 l-3 -34 -80 -3 c-90 -3 -105 6 -105 64 0 44 19 53 107 54 68 0 73 -1 79 -24z m-441 -100 c0 -13 -54 -53 -185 -137 -102 -66 -195 -122 -207 -125 -12 -3 -129 -2 -260 3 -131 5 -245 7 -253 5 -12 -2 -17 -19 -18 -60 -2 -31 -6 -82 -10 -112 l-7 -55 -228 -3 -228 -2 15 27 c8 16 35 53 60 83 41 49 53 58 123 81 80 26 98 44 73 74 -9 11 -35 15 -96 15 -48 0 -86 4 -89 11 -4 6 1 40 11 76 15 49 25 67 42 74 13 5 127 13 255 19 128 6 338 15 467 21 129 6 291 14 360 18 165 11 175 10 175 -13z m1074 -17 c6 -18 11 -45 11 -60 0 -29 0 -29 -63 -29 -69 0 -87 10 -87 51 0 30 11 41 55 57 54 19 72 15 84 -19z m-351 -284 c1 -38 -1 -95 -5 -125 l-8 -55 -95 0 -95 0 2 115 c2 63 5 120 8 128 3 9 28 12 97 10 l93 -3 3 -70z m245 19 l37 -7 0 -98 0 -98 -84 -3 -85 -3 -3 98 c-2 53 -1 102 0 107 4 11 77 13 135 4z"></path><path id="pxWzPTinQ" d="M385 6178 c29 -80 48 -121 57 -129 4 -3 9 -17 10 -32 1 -15 6 -27 9 -27 4 0 13 -17 20 -37 6 -21 29 -83 51 -138 41 -102 50 -125 87 -207 11 -26 21 -50 21 -52 0 -3 41 -87 90 -187 50 -100 90 -188 90 -195 0 -7 3 -14 8 -16 4 -1 29 -46 56 -98 27 -52 64 -118 83 -147 18 -29 33 -54 33 -57 0 -12 134 -243 202 -346 41 -63 92 -144 113 -180 22 -36 67 -101 100 -145 33 -44 80 -112 105 -150 25 -39 49 -75 55 -81 5 -7 53 -67 105 -134 196 -252 362 -451 481 -575 52 -55 110 -118 128 -140 50 -62 251 -274 301 -320 24 -22 97 -89 161 -150 153 -144 330 -302 382 -340 23 -16 85 -65 137 -108 165 -135 173 -141 241 -187 37 -25 111 -79 166 -121 54 -42 109 -82 123 -89 14 -7 97 -61 185 -120 88 -58 196 -126 240 -150 44 -24 116 -67 160 -95 44 -29 168 -97 275 -152 107 -55 224 -116 260 -136 36 -20 97 -49 135 -65 39 -16 95 -41 125 -54 30 -14 71 -31 90 -38 19 -7 73 -32 120 -56 88 -43 134 -61 460 -175 107 -37 240 -83 295 -103 113 -39 187 -60 425 -118 91 -22 210 -51 265 -65 130 -32 306 -71 373 -83 28 -6 78 -15 110 -21 31 -6 89 -14 127 -19 227 -28 436 -51 545 -60 199 -16 247 -22 225 -30 -43 -16 133 -24 540 -24 435 -1 615 3 675 15 19 3 26 7 16 8 -42 3 -5 10 109 21 316 30 526 52 585 61 321 51 379 63 650 128 436 104 543 133 705 186 121 41 399 138 438 153 15 7 53 20 85 31 71 23 138 50 222 89 36 16 144 64 240 107 157 69 379 176 405 195 6 4 69 37 141 74 134 67 594 339 649 383 17 13 91 64 165 113 74 49 202 140 285 202 119 90 151 119 157 144 6 23 30 47 98 98 50 37 123 95 162 129 38 33 80 61 91 62 14 1 23 9 25 22 2 11 22 36 45 54 23 19 67 58 98 87 31 29 72 57 91 62 24 7 72 48 161 136 70 70 127 133 127 142 0 8 30 47 68 87 37 39 105 112 151 163 45 51 100 101 120 112 21 10 49 36 63 57 14 21 65 83 113 138 48 55 131 159 186 230 54 72 116 153 137 180 66 86 212 305 212 319 0 7 6 19 14 25 8 7 45 62 82 124 37 62 96 155 130 208 34 53 92 152 129 220 38 68 74 131 81 140 28 32 313 601 365 727 5 12 13 32 19 45 5 12 36 92 68 177 33 85 63 164 67 175 5 11 7 23 7 28 -1 4 2 7 7 7 5 0 18 26 29 58 11 31 23 65 27 75 7 16 -399 17 -8443 17 l-8450 0 23 -62z m3910 3 c8 -14 25 -188 32 -329 6 -120 5 -124 -19 -150 -44 -49 -178 -236 -178 -249 0 -5 25 -33 55 -63 l54 -53 78 74 c43 41 102 100 132 132 30 31 59 57 66 57 17 0 95 -99 95 -121 0 -9 -28 -49 -63 -87 -34 -38 -113 -128 -175 -199 -63 -72 -124 -134 -136 -137 -30 -7 -254 -33 -480 -56 -54 -5 -106 -11 -115 -14 -9 -3 -47 -8 -86 -11 -38 -4 -97 -10 -130 -13 l-60 -7 -58 -113 -59 -114 28 -41 c26 -40 146 -205 200 -274 l25 -33 72 52 c39 28 83 59 97 69 25 19 105 30 350 50 63 5 156 13 205 17 100 9 93 12 212 -69 59 -40 214 -143 413 -276 163 -109 221 -143 239 -143 12 0 21 3 21 8 0 4 23 33 50 65 57 67 60 47 -30 182 -99 147 -98 145 -96 285 1 69 5 130 9 137 4 6 86 76 183 155 96 78 221 181 277 227 195 159 248 201 260 201 7 0 52 -23 101 -50 49 -28 93 -50 97 -50 5 0 13 -8 18 -19 7 -13 3 -44 -14 -112 -13 -52 -31 -137 -41 -189 -15 -80 -23 -100 -49 -125 -16 -16 -126 -119 -243 -229 -117 -109 -211 -201 -209 -203 3 -2 62 -6 133 -9 71 -3 136 -7 144 -11 8 -3 88 -8 177 -12 110 -5 166 -11 177 -20 12 -10 16 -33 16 -98 0 -58 4 -85 13 -87 6 -2 62 -14 122 -26 61 -12 120 -26 133 -31 43 -17 26 -43 -77 -112 -54 -37 -104 -73 -110 -81 -15 -18 -4 -105 14 -112 7 -3 63 4 126 15 63 10 208 36 322 55 l208 37 47 -40 c54 -44 87 -79 81 -85 -5 -5 -178 -86 -183 -86 -2 0 -42 -18 -88 -39 -75 -35 -156 -69 -363 -151 -38 -16 -113 -49 -166 -74 l-96 -45 -309 -16 c-483 -24 -491 -24 -819 -40 -170 -8 -404 -19 -520 -24 -115 -6 -309 -15 -430 -21 -262 -12 -503 -25 -835 -45 -135 -8 -287 -17 -339 -20 -93 -6 -97 -7 -232 -75 -76 -39 -144 -67 -153 -64 -14 5 -201 206 -304 327 -29 34 -86 100 -127 147 -102 115 -240 292 -382 488 -65 90 -130 180 -145 200 -15 21 -59 89 -99 152 -40 63 -91 142 -113 175 -157 230 -505 900 -636 1225 -45 113 -86 210 -91 216 -5 6 -24 54 -43 107 -25 68 -32 97 -23 101 23 9 3836 6 3842 -3z m11270 -176 c99 -102 185 -185 192 -185 7 0 36 -14 65 -31 29 -18 78 -45 108 -62 30 -16 61 -34 67 -40 7 -5 63 -35 125 -67 62 -32 123 -68 136 -79 21 -19 22 -22 7 -44 -15 -23 -12 -26 160 -190 l176 -167 54 0 c37 0 55 -4 55 -12 0 -7 -23 -53 -50 -102 -28 -49 -50 -91 -50 -92 0 -2 -16 -28 -35 -58 -19 -30 -35 -57 -35 -60 0 -10 -117 -207 -170 -286 -31 -47 -85 -131 -119 -187 -60 -99 -64 -103 -98 -103 -19 0 -82 16 -140 35 -58 19 -123 40 -145 46 -37 9 -42 16 -78 92 -21 45 -48 98 -59 117 -11 19 -36 69 -55 111 l-35 75 -64 12 c-35 7 -77 12 -93 12 l-29 0 3 -234 c2 -217 1 -236 -15 -244 -16 -9 -107 -22 -353 -52 -58 -7 -76 -15 -165 -75 -55 -37 -103 -71 -108 -74 -7 -7 -59 -203 -71 -274 -6 -35 -5 -39 24 -55 55 -30 272 -157 350 -204 41 -25 122 -71 180 -103 105 -58 150 -91 150 -107 0 -14 -149 -178 -264 -290 l-99 -98 -158 0 c-95 0 -160 -4 -164 -10 -4 -6 -9 -52 -11 -103 -3 -50 -9 -104 -14 -119 -6 -19 -5 -30 6 -39 27 -22 14 -47 -48 -95 -35 -26 -94 -76 -131 -112 -38 -35 -94 -82 -125 -105 -32 -23 -92 -71 -135 -107 -145 -120 -146 -120 -261 -120 -110 0 -113 2 -197 67 -99 78 -363 273 -369 273 -7 0 -32 48 -27 52 1 1 101 4 222 8 l219 5 18 50 c10 28 18 53 18 57 0 4 -23 33 -50 63 -28 31 -48 60 -45 64 2 5 115 12 250 16 162 5 248 11 253 19 10 13 63 148 59 152 -3 3 -530 -17 -543 -21 -6 -2 -14 -26 -18 -53 -10 -78 -26 -90 -136 -107 -52 -8 -117 -21 -145 -29 -27 -9 -59 -16 -69 -16 -11 0 -66 -28 -124 -61 l-104 -61 -437 5 c-240 3 -438 6 -440 6 -2 1 -62 58 -132 128 l-128 126 -85 -7 c-78 -5 -94 -11 -188 -60 -102 -54 -193 -87 -498 -183 l-155 -48 -576 -3 -577 -2 -113 78 c-63 43 -134 93 -159 111 -25 18 -88 61 -140 95 -52 34 -122 81 -155 104 -66 44 -76 47 -330 82 -129 18 -143 22 -193 56 -83 58 -136 109 -130 125 4 10 42 20 128 32 67 9 129 22 136 28 8 7 14 30 14 55 l0 44 -323 0 -323 0 -110 81 c-60 44 -116 84 -124 89 -21 13 -6 35 67 95 33 28 101 84 150 126 l90 76 444 7 444 7 58 -63 57 -63 203 -5 c111 -3 279 -4 373 -2 l171 3 74 66 c41 36 98 88 128 116 l54 51 -8 180 -7 180 107 101 107 101 -86 63 -86 62 0 47 c0 26 4 88 9 137 6 50 13 140 16 200 l7 110 -118 145 c-66 80 -137 167 -159 194 -123 150 -264 321 -321 388 l-64 78 0 118 c0 65 3 122 7 125 3 4 1231 7 2727 7 l2720 0 181 -185z"></path><path id="p6tFl27qP" d="M14604 5966 c-3 -8 3 -45 13 -83 l18 -68 40 -3 c68 -4 82 -11 103 -45 18 -31 24 -34 98 -45 43 -6 82 -8 86 -6 4 3 8 37 8 76 l0 71 -58 59 -59 58 -122 0 c-95 0 -123 -3 -127 -14z"></path><path id="pvz3vKjj3" d="M14145 5813 c-33 -20 -61 -37 -62 -38 -2 -1 2 -42 8 -91 12 -104 24 -125 131 -235 53 -54 84 -78 107 -82 43 -9 216 -9 224 0 4 3 -8 25 -26 47 -18 23 -62 84 -97 136 -35 52 -92 132 -127 178 -35 46 -68 92 -73 103 -6 10 -14 19 -18 19 -4 0 -34 -17 -67 -37z"></path><path id="pYD7xntvn" d="M15179 5763 c-50 -54 -59 -75 -59 -136 0 -41 4 -59 14 -63 8 -3 83 14 168 38 l153 43 0 70 0 70 -125 3 -126 3 -25 -28z"></path><path id="paOwFJxOq" d="M14768 5623 c-2 -5 -2 -63 0 -130 4 -143 -7 -133 149 -133 119 0 123 3 123 93 0 43 -4 57 -22 73 -49 43 -109 74 -173 89 -77 18 -73 17 -77 8z"></path><path id="pwqAvviuJ" d="M15272 5443 l-43 -36 27 -28 c15 -16 34 -29 41 -29 11 0 74 36 103 58 5 4 -71 72 -80 72 -3 0 -24 -17 -48 -37z"></path><path id="p1AqOsydJ6" d="M14200 5245 c-93 -25 -95 -27 -62 -95 15 -30 29 -39 117 -75 55 -22 105 -44 112 -48 7 -4 86 -10 176 -14 180 -7 176 -8 182 54 4 39 17 53 53 53 22 0 23 3 20 73 l-3 72 -255 1 c-238 2 -261 0 -340 -21z"></path><path id="pDOuvw6rv" d="M14910 5184 l0 -76 51 44 c28 23 59 49 70 57 29 21 23 28 -31 40 -92 20 -90 21 -90 -65z"></path><path id="pFCAgyVy7" d="M13692 4608 c-34 -68 -62 -128 -62 -134 0 -11 37 -31 147 -79 l63 -28 86 18 c47 10 88 23 90 29 2 6 -11 67 -29 136 l-32 124 -90 28 c-49 15 -95 28 -100 28 -6 0 -39 -55 -73 -122z"></path><path id="pikzWq2g2" d="M12873 3612 c-33 -45 -32 -52 12 -67 115 -39 399 -99 418 -88 12 7 8 140 -5 150 -7 6 -56 13 -108 16 -52 4 -140 9 -195 13 l-100 6 -22 -30z"></path><path id="pbdINNE2w" d="M12832 3211 c-9 -5 -12 -30 -10 -87 l3 -79 90 -5 c86 -5 90 -6 103 -32 l13 -28 140 0 139 0 0 63 c0 57 -4 67 -41 120 l-41 57 -191 0 c-106 0 -198 -4 -205 -9z"></path></g></g><g id="l5Y9xgzj99GJFrfbfpqMHt1" fill="rgb(34,197,94)" style="transform: none;"><g style="transform: none;"><path id="pAxMfGz7V" d="M10340 17930 c0 -5 7 -10 15 -10 8 0 15 5 15 10 0 6 -7 10 -15 10 -8 0 -15 -4 -15 -10z"></path><path id="pUhqW782I" d="M10443 17914 c3 -4 25 -10 49 -14 38 -7 41 -7 23 6 -18 13 -85 21 -72 8z"></path><path id="p1C1hBs3sK" d="M6020 11316 c0 -6 83 -124 130 -185 11 -14 99 -132 194 -261 193 -260 217 -293 261 -350 17 -21 73 -98 125 -169 52 -72 101 -132 108 -135 7 -3 746 -6 1641 -6 1612 0 1628 0 1702 -21 193 -53 293 -161 293 -314 -1 -152 -93 -241 -302 -291 -47 -11 -325 -13 -1548 -14 l-1492 0 -115 -29 c-121 -31 -285 -97 -387 -157 -313 -183 -504 -455 -586 -834 -27 -121 -27 -496 -1 -620 94 -441 346 -733 762 -880 201 -71 -34 -64 2478 -70 1690 -4 2267 -2 2267 6 0 7 -30 50 -67 97 -38 47 -102 129 -143 182 -41 53 -88 114 -105 135 -16 21 -48 61 -70 90 -22 28 -60 78 -85 109 -25 32 -72 93 -105 136 -33 43 -73 95 -90 115 -16 21 -48 61 -70 90 -22 29 -53 68 -69 86 l-28 34 -1548 0 c-1499 0 -1550 1 -1593 19 -24 10 -53 30 -64 45 -74 94 -41 266 61 315 42 21 47 21 1382 21 1452 0 1429 -1 1661 55 515 124 878 445 1006 890 35 120 46 185 58 340 11 153 -1 348 -33 500 -119 576 -570 961 -1241 1059 -95 14 -353 16 -2247 16 -1177 0 -2140 -2 -2140 -4z"></path><path id="pKhzyR1N4" d="M902 11272 l-642 -2 0 -2170 0 -2170 650 0 650 0 0 800 0 800 1295 0 1295 0 2 -797 3 -798 633 -3 632 -2 -2 2170 -3 2170 -623 0 c-343 0 -628 -2 -633 -5 -5 -4 -9 -322 -9 -801 l0 -794 -1295 0 -1295 0 0 799 c0 440 -3 801 -7 803 -5 2 -297 2 -651 0z"></path><path id="p5xXQRkgc" d="M11835 11243 c10 -15 42 -59 71 -98 29 -38 65 -87 81 -108 15 -20 42 -55 58 -77 17 -21 56 -74 87 -117 52 -70 364 -492 435 -586 15 -21 37 -49 48 -63 l20 -25 1640 -2 c1546 -2 1643 -3 1700 -20 143 -43 230 -104 275 -194 34 -67 34 -168 1 -236 -28 -58 -91 -112 -165 -144 -128 -54 -107 -53 -1700 -53 -1416 0 -1474 -1 -1551 -19 -448 -108 -796 -404 -933 -793 -63 -179 -77 -270 -77 -513 0 -281 25 -413 115 -611 43 -96 145 -244 167 -244 7 0 13 -6 13 -13 0 -17 96 -109 165 -159 83 -60 234 -135 345 -172 213 -71 49 -67 2514 -64 l2219 3 -49 62 c-27 35 -80 103 -119 153 -38 50 -101 131 -140 180 -63 80 -159 204 -192 249 -7 9 -46 57 -85 108 -40 51 -104 134 -143 184 -38 51 -80 103 -92 116 l-22 23 -1538 0 c-1027 0 -1550 4 -1575 10 -101 28 -152 128 -128 247 16 75 67 126 140 142 38 8 435 11 1389 11 1447 0 1409 -2 1630 54 269 68 490 187 670 361 254 245 374 560 374 985 0 194 -11 296 -50 445 -60 229 -165 416 -321 572 -194 195 -435 321 -767 401 l-110 26 -2209 3 -2209 3 18 -27z"></path><path id="p5c95Byn9" d="M14641 2446 c-8 -10 -9 -16 -1 -21 5 -3 13 1 16 10 9 22 -1 29 -15 11z"></path><path id="pp4qpEwbk" d="M8246 245 c25 -19 45 -19 38 0 -4 8 -18 15 -32 15 -25 0 -25 -1 -6 -15z"></path><path id="pIDeQ6WXZ" d="M9360 251 c0 -5 9 -11 20 -14 11 -3 20 -1 20 5 0 6 7 8 15 4 8 -3 15 -1 15 4 0 6 -16 10 -35 10 -19 0 -35 -4 -35 -9z"></path></g></g></svg>