<svg class="img-fluid" id="outputsvg" xmlns="http://www.w3.org/2000/svg" style="transform: matrix(1, 0, 0, 1, 0, 0); transform-origin: 50% 50%; cursor: move; max-height: 344.62px; transition: transform 200ms ease-in-out;" width="1640" height="1636" viewBox="0 0 16400 16360"><g id="l6PDnAIeQiTWRxgRktgsk5S" fill="rgb(34,197,94)" style="transform: none;"><g><path id="p13urZmRj6" d="M7715 16350 c-3 -5 -40 -10 -81 -10 -42 0 -119 -5 -172 -10 -53 -6 -142 -15 -197 -20 -55 -6 -127 -15 -160 -20 -33 -5 -94 -14 -135 -20 -41 -6 -97 -15 -125 -20 -27 -5 -81 -14 -120 -20 -95 -15 -150 -26 -297 -60 -24 -5 -86 -19 -138 -31 -90 -20 -167 -40 -235 -59 -41 -12 -85 -24 -178 -49 -164 -45 -556 -181 -762 -264 -1136 -461 -2151 -1161 -2964 -2042 -696 -756 -1218 -1580 -1593 -2515 -39 -96 -74 -186 -78 -200 -4 -14 -26 -77 -49 -140 -23 -63 -41 -118 -41 -122 0 -4 3510 -8 7800 -8 l7800 0 -6 28 c-15 58 -182 503 -229 607 -8 17 -44 98 -80 180 -94 212 -235 484 -383 740 -77 133 -90 154 -207 335 -424 658 -1026 1331 -1650 1847 -881 726 -1949 1287 -3000 1574 -22 6 -51 15 -65 19 -24 8 -315 80 -407 100 -107 24 -131 30 -178 39 -27 5 -78 14 -112 20 -121 21 -178 30 -385 61 -35 5 -115 14 -178 20 -63 6 -151 16 -194 21 -44 5 -114 9 -157 9 -43 0 -81 5 -84 10 -4 6 -175 10 -480 10 -305 0 -476 -4 -480 -10z m-1246 -985 c153 -25 155 -25 245 -82 143 -88 194 -120 471 -288 143 -87 325 -201 405 -253 80 -53 179 -110 220 -128 41 -17 104 -45 140 -61 76 -35 279 -149 299 -168 11 -11 5 -27 -35 -100 l-49 -87 -35 6 c-19 3 -52 9 -72 12 l-37 6 -3 -158 -3 -159 -65 3 c-36 1 -97 5 -136 8 l-70 5 -12 192 c-7 106 -16 220 -19 254 l-6 62 -112 74 c-104 70 -117 76 -191 87 -43 6 -104 15 -134 20 -30 4 -92 14 -138 21 -90 14 -75 6 -289 158 -65 47 -181 130 -258 184 -183 131 -252 183 -297 226 -37 35 -38 36 -38 111 0 42 3 79 6 83 4 3 18 4 33 1 14 -2 95 -15 180 -29z m-1124 -244 l140 -78 3 -110 3 -110 -98 -11 c-54 -7 -125 -13 -158 -14 l-60 -3 -141 155 c-131 144 -172 196 -162 206 4 4 285 41 318 42 8 0 78 -34 155 -77z m423 -523 c84 -77 829 -776 857 -803 11 -11 49 -85 84 -165 35 -80 85 -194 112 -253 27 -59 49 -118 49 -130 0 -12 -20 -105 -46 -207 l-46 -185 -141 -120 c-78 -66 -158 -136 -178 -155 l-36 -35 -7 -185 c-4 -102 -11 -232 -15 -290 l-8 -105 -104 -176 c-144 -244 -116 -218 -238 -221 l-105 -3 -7 35 c-4 19 -19 143 -34 275 -14 132 -32 278 -38 324 l-13 84 -69 -2 c-39 -1 -101 -6 -140 -11 -38 -5 -93 -10 -120 -10 -48 0 -131 -33 -161 -64 -7 -6 -14 -67 -18 -143 l-7 -133 23 0 c13 0 59 9 103 19 l79 19 88 -86 c48 -47 88 -91 88 -97 0 -7 -83 -62 -185 -124 l-185 -111 -234 0 c-234 0 -235 0 -247 23 -14 26 -270 390 -297 423 -8 8 -76 11 -124 5 -4 -1 -6 -31 -3 -68 l5 -66 -167 7 c-93 4 -184 10 -203 14 -36 8 -73 47 -410 432 -74 85 -159 181 -189 212 l-54 58 -156 0 -156 0 -180 125 c-99 69 -183 133 -187 143 -3 9 -7 112 -7 227 -1 116 -6 352 -12 525 l-11 315 -74 73 c-41 40 -74 77 -74 82 0 11 176 170 188 170 5 0 186 -61 403 -137 l394 -136 145 -8 c346 -19 704 -29 711 -22 5 5 76 157 159 338 82 181 154 333 160 339 6 6 124 13 287 18 235 7 579 21 661 26 15 1 45 -18 90 -60z m8684 -1202 c620 -736 1108 -1586 1427 -2484 l40 -112 -1419 0 c-781 0 -1420 3 -1420 8 0 4 69 94 154 201 128 160 156 201 161 235 3 22 10 61 15 86 5 25 12 62 15 82 3 21 14 42 23 47 9 5 68 20 130 35 129 30 131 31 410 238 l172 128 0 675 0 675 23 10 c12 5 49 17 82 27 60 18 60 18 57 53 -2 19 -13 80 -23 135 -10 55 -19 110 -19 123 0 22 1 22 23 6 12 -10 79 -85 149 -168z m-10390 -1948 l3 -32 57 3 c83 4 98 -3 98 -45 l0 -34 50 0 50 0 0 -57 c0 -83 -7 -89 -70 -75 -28 7 -64 12 -80 12 -34 0 -47 15 -52 60 l-3 35 -107 14 -108 14 0 69 0 68 79 0 80 0 3 -32z m2706 -45 l-3 -78 -87 -3 -87 -3 -5 -42 c-3 -23 -10 -123 -16 -221 -6 -99 -14 -184 -17 -189 -3 -5 -34 -22 -70 -38 l-65 -29 -731 1 c-476 0 -722 4 -702 10 28 9 125 24 315 50 60 8 97 22 193 71 126 65 137 77 137 143 l0 34 -77 3 c-67 3 -78 6 -77 21 0 9 1 65 2 123 l2 107 133 -7 c72 -4 192 -10 266 -14 l133 -7 100 -103 99 -103 87 -9 c48 -6 90 -10 95 -10 4 0 7 80 7 178 0 98 3 182 7 185 3 4 87 7 185 7 l179 0 -3 -77z m-3143 8 c23 -5 31 -12 33 -34 3 -25 7 -27 47 -27 43 0 44 0 47 -37 3 -33 7 -39 35 -47 24 -7 34 -17 38 -38 4 -15 4 -32 0 -38 -3 -5 -41 -10 -83 -10 l-77 0 -82 82 c-75 74 -83 86 -83 120 l0 38 48 -1 c26 -1 61 -4 77 -8z m-197 -113 l3 -48 -85 0 -86 0 0 43 c0 24 3 47 7 51 4 4 41 5 83 4 l75 -3 3 -47z m-398 -52 c0 -8 -35 -36 -77 -62 -42 -27 -124 -80 -183 -117 l-105 -69 -223 7 c-123 4 -231 8 -240 9 -14 1 -19 -17 -31 -106 l-14 -108 -210 0 c-166 0 -207 3 -200 13 101 130 103 131 177 158 71 26 91 48 67 72 -6 6 -44 11 -85 12 -41 0 -78 4 -82 8 -11 11 29 137 46 142 16 5 288 18 760 36 151 5 276 12 279 14 2 3 31 5 63 5 43 0 58 -4 58 -14z m968 1 c6 -7 14 -32 18 -55 l7 -43 -69 3 c-68 3 -69 4 -72 32 -4 34 7 47 56 62 50 16 48 16 60 1z m-318 -294 c0 -43 -3 -95 -6 -115 l-7 -38 -83 0 -84 0 0 115 0 115 90 0 90 0 0 -77z m261 20 c5 -5 9 -47 7 -92 l-3 -83 -78 -1 -77 -2 0 99 0 99 71 -5 c39 -3 75 -10 80 -15z"></path><path id="pN09bMhS1" d="M335 10130 c-13 -26 -15 -252 -15 -1990 0 -1738 2 -1964 15 -1990 l16 -30 566 0 567 0 28 27 28 27 0 692 c0 541 3 694 12 701 7 6 27 15 43 21 22 8 25 11 10 11 -17 1 -17 3 -5 11 17 11 2177 14 2205 4 12 -5 13 -9 5 -14 -9 -5 -3 -12 16 -21 l29 -14 3 -697 c2 -685 2 -698 22 -708 11 -6 20 -17 20 -25 0 -13 75 -15 563 -15 493 0 565 2 585 16 l22 15 0 1988 c0 1913 -1 1989 -18 2004 -17 15 -72 17 -585 17 -491 0 -567 -2 -567 -15 0 -8 -9 -19 -20 -25 -19 -10 -19 -26 -22 -731 -3 -627 -5 -721 -18 -729 -19 -12 -2275 -9 -2287 3 -4 5 -9 327 -10 715 -2 389 -5 717 -8 730 -3 13 -10 20 -16 16 -6 -3 -13 3 -16 15 l-5 21 -574 0 -573 0 -16 -30z"></path><path id="pjMfCRAqk" d="M5657 10140 c-3 -11 -11 -19 -19 -18 -7 2 -13 -4 -13 -12 0 -8 7 -14 16 -12 12 2 20 -11 29 -43 9 -31 20 -49 38 -58 16 -7 29 -25 34 -43 5 -21 14 -31 24 -30 11 0 21 -12 29 -34 8 -23 18 -34 29 -32 10 2 16 -4 16 -18 0 -11 5 -20 10 -20 6 0 10 -11 10 -24 0 -17 9 -29 27 -38 19 -9 30 -24 36 -50 6 -25 15 -38 25 -38 16 0 52 -62 52 -88 0 -7 9 -12 20 -12 11 0 23 -8 26 -17 13 -42 27 -61 40 -56 8 3 14 -1 14 -9 0 -23 33 -84 38 -70 2 7 13 -4 24 -25 11 -21 31 -49 46 -61 18 -16 23 -25 14 -29 -14 -5 27 -43 47 -43 6 0 11 -7 11 -16 0 -21 35 -65 45 -56 5 4 5 2 2 -4 -3 -6 3 -21 14 -32 l20 -22 1492 -2 1492 -3 -1465 -5 c-806 -3 -1382 -7 -1280 -9 102 -3 741 -5 1420 -6 990 -1 1258 -4 1350 -15 65 -8 105 -16 92 -20 -20 -4 -13 -9 35 -24 32 -11 67 -29 78 -40 11 -12 37 -33 57 -46 49 -33 58 -56 58 -152 l0 -80 -41 -40 c-22 -22 -54 -44 -69 -50 -16 -5 -27 -15 -24 -22 6 -17 -53 -36 -117 -37 -30 -1 -65 -5 -79 -9 l-25 -8 25 -1 c19 -1 21 -4 12 -13 -10 -10 -291 -14 -1300 -20 -780 -4 -1303 -10 -1327 -16 -40 -10 -40 -10 -7 -11 17 0 32 -5 32 -11 0 -5 -4 -10 -9 -10 -22 0 -219 -21 -243 -26 -16 -3 -28 -10 -28 -14 0 -5 7 -7 15 -4 8 4 15 2 15 -3 0 -11 -84 -32 -140 -36 -27 -1 -34 -6 -32 -19 2 -12 -8 -20 -35 -27 -21 -6 -46 -11 -55 -11 -9 0 -24 -3 -33 -6 -13 -5 -14 -9 -4 -15 15 -9 9 -19 -13 -23 -7 -2 -24 -8 -38 -13 -14 -6 -29 -8 -33 -6 -5 3 -11 -4 -14 -15 -5 -20 -41 -42 -68 -42 -8 0 -15 -8 -15 -17 0 -18 -57 -53 -85 -53 -8 0 -15 -4 -15 -9 0 -5 9 -7 20 -4 11 3 20 0 20 -6 0 -6 -11 -11 -24 -11 -26 0 -51 -24 -51 -48 0 -9 -11 -19 -25 -22 -14 -3 -26 -12 -26 -20 -1 -8 -2 -20 -3 -27 0 -6 -11 -13 -23 -15 -16 -2 -24 -12 -28 -33 -4 -21 -12 -31 -30 -35 -20 -5 -26 -15 -35 -60 -5 -30 -13 -53 -16 -50 -17 14 -38 -28 -50 -100 -12 -79 -28 -106 -30 -52 -1 23 -3 21 -11 -13 -13 -48 -16 -538 -5 -608 8 -45 10 -47 22 -30 14 17 14 17 15 0 0 -33 33 -162 37 -149 3 6 9 12 14 12 6 0 7 -4 4 -10 -3 -5 1 -20 9 -32 9 -12 16 -33 16 -45 0 -21 11 -36 54 -71 8 -6 13 -19 10 -27 -4 -10 3 -18 20 -25 15 -5 31 -21 36 -35 5 -14 16 -25 23 -25 8 0 22 -9 32 -20 10 -11 14 -20 10 -20 -4 0 0 -9 10 -20 10 -11 21 -18 24 -15 4 2 13 -1 21 -6 12 -7 13 -11 2 -18 -10 -6 -2 -13 27 -24 22 -9 44 -25 50 -35 5 -10 29 -25 53 -32 59 -19 65 -22 42 -30 -14 -6 0 -13 55 -30 46 -14 68 -25 60 -30 -12 -8 38 -26 124 -44 15 -4 25 -10 23 -15 -7 -10 70 -41 102 -41 12 0 22 -4 22 -10 0 -14 61 -28 175 -40 124 -14 147 -18 141 -29 -3 -5 15 -11 41 -15 25 -3 884 -6 1909 -6 1603 0 1864 2 1864 14 0 8 3 21 6 29 3 8 -8 27 -25 45 -17 17 -31 37 -31 45 0 16 -31 47 -48 47 -7 0 -12 7 -12 15 0 24 -33 85 -46 85 -6 0 -19 16 -28 35 -9 19 -23 35 -31 35 -8 0 -15 5 -15 10 0 21 -2 25 -14 40 -8 8 -19 32 -26 54 -9 27 -15 35 -21 25 -11 -18 -23 -4 -39 45 -8 24 -15 34 -20 26 -8 -13 -40 41 -40 67 0 7 -11 18 -24 23 -18 6 -28 22 -36 51 -7 23 -15 37 -19 31 -4 -8 -11 -8 -21 -1 -11 8 -12 12 -3 15 8 4 6 11 -8 25 -10 10 -19 28 -19 40 0 11 -4 18 -10 14 -5 -3 -7 -12 -3 -20 3 -8 1 -15 -4 -15 -5 0 -15 21 -22 46 -9 31 -21 48 -37 54 -14 6 -26 21 -30 37 -11 53 -14 59 -23 44 -5 -7 -14 -10 -20 -7 -17 11 -13 26 7 27 14 0 13 2 -4 9 -12 4 -24 15 -27 24 -6 14 -150 16 -1423 16 -780 0 -1420 2 -1422 5 -3 3 627 5 1399 5 910 0 1399 4 1389 10 -9 6 -525 10 -1407 10 -1048 0 -1404 3 -1444 12 -45 11 -54 16 -67 48 -17 41 -12 194 7 213 9 9 310 13 1154 17 628 3 1111 8 1072 13 -38 4 -532 5 -1097 1 -697 -3 -1028 -2 -1028 5 0 5 15 13 33 16 17 3 586 7 1262 9 677 2 1250 8 1275 13 l45 9 -34 7 c-19 4 -32 10 -29 12 3 3 48 10 99 16 52 6 110 14 129 19 33 7 33 8 7 9 -48 2 -21 18 50 30 118 21 116 20 103 36 -12 15 8 22 105 41 23 4 32 9 23 11 -33 8 -18 22 45 42 34 11 59 21 55 22 -5 1 -12 3 -18 4 -5 1 -13 3 -17 4 -5 1 20 11 55 22 51 16 61 23 52 34 -12 15 -7 19 33 29 17 4 31 16 37 31 5 14 21 30 35 35 14 5 25 16 25 24 0 9 14 22 30 31 17 9 30 20 30 26 0 6 18 28 39 49 24 23 41 50 43 67 2 16 9 28 17 28 14 0 21 9 40 58 6 15 16 25 21 22 6 -3 10 2 10 12 0 10 6 27 14 38 13 20 14 25 19 77 3 34 17 48 17 17 1 -46 30 53 36 121 3 36 8 81 11 100 6 33 6 34 13 10 5 -18 10 -1 20 64 14 98 9 304 -8 346 -6 14 -11 19 -11 12 -1 -7 -5 -10 -11 -7 -5 3 -10 32 -10 63 0 50 -5 78 -25 169 -3 15 -10 20 -20 17 -11 -5 -15 1 -15 20 0 41 -30 106 -46 99 -9 -3 -14 2 -14 15 0 36 -29 89 -51 95 -13 3 -19 11 -16 19 2 8 -3 24 -13 36 -11 14 -20 18 -22 10 -2 -6 -13 6 -25 28 -11 21 -25 39 -32 39 -6 0 -17 11 -24 25 -7 14 -23 26 -36 28 -14 2 -21 9 -17 18 3 8 -4 18 -15 24 -11 6 -24 22 -29 36 -5 13 -18 24 -28 24 -10 0 -24 6 -30 12 -7 7 -20 13 -30 13 -9 0 -22 11 -29 25 -7 14 -19 24 -27 22 -8 -1 -22 8 -30 20 -9 14 -35 29 -63 37 -26 7 -54 21 -61 30 -7 8 -47 25 -90 37 -42 12 -68 23 -57 24 30 2 -59 31 -140 45 -38 7 -59 14 -46 14 13 1 22 4 19 7 -9 8 -186 34 -238 34 -44 0 -94 18 -60 21 8 1 2 5 -15 9 -16 4 -881 8 -1921 9 l-1892 1 -5 -20z m1323 -2817 c0 -48 -3 -64 -10 -53 -13 20 -13 120 0 120 6 0 10 -29 10 -67z"></path><path id="pf98FaSXq" d="M10969 10155 c-1 -3 -2 -9 -3 -14 0 -5 -4 -12 -8 -16 -4 -4 -3 -15 2 -24 4 -9 13 -29 19 -44 6 -16 16 -25 22 -22 6 4 13 -2 16 -14 3 -12 9 -21 14 -21 5 0 9 -11 9 -24 0 -17 9 -29 27 -38 18 -9 30 -26 38 -53 7 -25 13 -34 17 -25 8 21 23 4 37 -42 7 -21 17 -35 24 -32 12 4 37 -38 37 -61 0 -6 13 -21 29 -33 17 -12 32 -35 36 -53 5 -21 10 -27 15 -19 10 16 30 4 30 -18 1 -20 29 -73 30 -54 0 20 20 14 20 -7 0 -11 5 -23 10 -26 6 -3 10 -15 10 -25 0 -11 12 -25 27 -32 19 -9 30 -23 33 -43 3 -18 11 -30 20 -30 8 0 23 -17 32 -37 13 -28 22 -36 35 -31 13 5 15 2 10 -11 -4 -10 -1 -19 8 -22 8 -4 15 -17 15 -30 0 -17 8 -27 25 -34 15 -6 27 -21 33 -41 4 -19 16 -35 27 -38 11 -3 686 -8 1500 -11 l1480 -5 -1449 -3 c-797 -1 -1446 -5 -1442 -9 4 -5 643 -8 1419 -9 1102 -1 1435 -4 1515 -14 56 -7 102 -17 102 -22 0 -4 28 -21 63 -38 34 -16 58 -30 53 -30 -18 0 26 -39 48 -42 11 -2 21 -10 21 -19 0 -9 6 -24 14 -33 20 -24 26 -102 10 -149 -15 -48 -60 -97 -104 -113 -16 -6 -30 -18 -30 -27 0 -8 -3 -19 -7 -22 -3 -4 -60 -13 -125 -20 -69 -7 -98 -13 -70 -14 26 0 47 -5 47 -11 0 -5 -1 -11 -2 -12 -2 -1 -590 -5 -1308 -9 -771 -4 -1323 -11 -1350 -17 l-45 -9 38 -2 c36 -1 55 -21 20 -21 -29 0 -195 -20 -220 -26 -13 -4 -23 -12 -23 -20 0 -14 -58 -34 -100 -34 -35 0 -70 -11 -70 -21 0 -5 7 -6 15 -3 8 4 15 2 15 -3 0 -5 -35 -18 -77 -28 -43 -10 -70 -21 -60 -23 31 -7 18 -18 -40 -32 -46 -12 -58 -19 -58 -35 0 -11 -7 -20 -15 -21 -8 0 -28 -6 -43 -12 -16 -7 -32 -12 -37 -12 -5 0 -10 -10 -12 -22 -2 -17 -11 -24 -30 -26 -20 -2 -28 -9 -28 -23 0 -13 -10 -24 -30 -30 -20 -7 -30 -18 -30 -30 0 -13 -10 -24 -29 -30 -18 -6 -32 -20 -35 -35 -4 -14 -18 -29 -31 -34 -14 -5 -25 -18 -25 -28 0 -11 -8 -34 -17 -52 -14 -30 -17 -32 -23 -14 -6 15 -9 13 -15 -16 -9 -44 -33 -83 -45 -75 -6 4 -10 0 -11 -7 0 -7 -7 -49 -15 -93 -8 -44 -15 -88 -15 -97 -1 -30 -19 -31 -20 -1 l-1 28 -10 -30 c-13 -39 -13 -489 0 -535 8 -29 10 -31 11 -11 2 50 21 4 33 -78 11 -72 16 -84 35 -92 13 -5 22 -12 21 -16 0 -5 1 -15 5 -23 3 -8 8 -33 12 -54 4 -26 9 -35 15 -27 12 21 26 6 40 -43 9 -32 18 -46 34 -50 13 -3 28 -17 34 -31 6 -14 16 -25 22 -25 6 0 18 -16 26 -35 8 -19 20 -35 27 -35 24 0 67 -25 63 -36 -3 -6 6 -16 20 -23 13 -6 24 -15 24 -21 0 -6 5 -8 12 -4 6 4 20 -4 32 -18 12 -14 41 -33 66 -42 25 -8 36 -15 25 -16 -24 0 43 -36 86 -45 16 -4 27 -11 26 -17 -1 -7 32 -22 73 -34 41 -12 68 -23 60 -24 -22 -1 44 -28 88 -35 57 -10 73 -16 67 -25 -5 -8 13 -12 140 -30 139 -19 146 -21 140 -30 -3 -4 23 -11 57 -15 35 -3 898 -5 1918 -3 l1855 3 1 43 c1 37 -2 45 -22 52 -15 6 -27 23 -35 50 -8 27 -15 36 -20 28 -6 -10 -12 -8 -23 7 -9 11 -16 28 -16 38 0 11 -8 17 -21 17 -15 0 -19 5 -15 15 3 9 -1 18 -9 21 -8 4 -15 17 -15 30 0 17 -8 27 -24 34 -18 6 -28 22 -36 51 -8 28 -14 38 -20 29 -9 -15 -30 -5 -30 16 0 27 -29 71 -50 77 -14 3 -20 13 -20 31 0 19 -7 29 -24 36 -17 6 -29 22 -37 50 -7 22 -15 36 -19 30 -9 -14 -23 3 -43 52 -8 20 -25 39 -36 43 -14 4 -21 15 -21 31 0 17 -8 27 -24 34 -18 6 -28 22 -37 52 -6 24 -14 37 -16 31 -8 -23 -20 -13 -37 31 -12 31 -22 43 -32 39 -8 -3 -14 1 -14 10 0 43 42 42 -1439 47 l-1406 5 1410 4 c776 1 1399 7 1385 11 -14 4 -654 8 -1423 9 -1006 1 -1411 4 -1445 12 -49 12 -77 28 -52 30 9 0 6 4 -6 9 -26 10 -39 76 -29 145 10 62 22 74 90 85 36 6 496 10 1160 11 605 1 1073 5 1040 9 -33 4 -531 5 -1107 3 -979 -4 -1073 -3 -1045 19 1 1 567 5 1257 9 690 4 1275 11 1300 16 l45 9 -39 8 c-21 4 -36 9 -34 11 2 2 44 9 93 15 139 16 166 21 160 30 -3 5 -13 6 -23 3 -12 -4 -14 -3 -7 5 6 6 46 18 90 25 59 10 79 18 78 28 -3 14 58 39 96 39 13 0 21 8 23 23 2 13 10 22 20 22 9 0 20 4 24 8 4 4 18 7 31 7 15 0 27 8 32 23 6 16 23 28 52 36 26 8 38 16 30 20 -9 6 -8 11 4 21 8 7 15 9 15 6 0 -4 10 0 22 8 12 9 31 16 41 16 10 0 16 4 13 9 -11 18 6 41 30 41 13 0 24 6 24 13 0 21 24 48 45 51 11 2 19 12 20 25 1 13 6 26 12 29 5 4 12 15 16 25 4 10 10 17 14 14 5 -2 18 7 30 19 13 15 17 24 10 27 -16 5 10 37 29 37 9 0 14 11 14 30 0 17 4 30 9 30 5 0 11 9 14 21 3 12 10 18 15 15 12 -7 22 16 22 50 0 13 4 32 9 42 5 9 13 26 17 37 6 19 7 18 14 -5 l7 -25 6 30 c4 17 11 75 17 130 6 55 15 118 19 140 9 40 9 40 11 -20 l3 -60 7 60 c10 77 10 283 0 360 l-7 60 -2 -55 c-3 -83 -17 -35 -32 110 -10 105 -15 123 -30 127 -18 5 -24 21 -43 106 -4 15 -13 27 -21 27 -19 0 -30 21 -15 30 8 5 7 9 -4 13 -9 4 -16 18 -16 32 0 18 -7 28 -24 35 -17 6 -29 22 -37 50 -7 24 -15 36 -20 29 -10 -18 -28 -2 -37 34 -6 22 -14 32 -28 32 -11 0 -25 12 -34 30 -9 19 -21 30 -31 27 -11 -2 -20 7 -27 27 -7 21 -16 29 -25 25 -9 -3 -21 4 -30 16 -13 19 -85 65 -97 61 -3 0 -5 2 -5 7 0 15 -41 47 -57 44 -9 -2 -21 5 -27 16 -5 10 -29 24 -53 32 -24 7 -50 21 -58 30 -14 15 -57 31 -123 45 -15 3 -25 9 -23 14 6 10 -76 36 -144 47 -35 5 -40 8 -25 14 17 6 16 8 -10 13 -16 3 -70 11 -120 17 -151 19 -163 21 -140 30 14 5 6 8 -29 13 -56 8 -3825 10 -3827 2z"></path><path id="pFDD565Fn" d="M16386 8534 c-8 -65 -5 -632 4 -669 4 -16 8 138 9 343 0 204 -1 372 -3 372 -2 0 -6 -21 -10 -46z"></path><path id="poWHa6clD" d="M443 5508 c3 -7 21 -56 42 -108 20 -52 40 -104 45 -115 4 -11 23 -58 41 -105 18 -47 49 -123 71 -168 21 -46 38 -86 38 -88 0 -9 71 -157 169 -354 108 -215 121 -240 180 -338 17 -29 31 -54 31 -56 0 -4 112 -189 190 -316 162 -261 477 -683 714 -955 563 -647 1052 -1084 1698 -1518 769 -517 1619 -899 2503 -1126 242 -62 246 -63 660 -142 105 -20 451 -64 625 -80 63 -5 162 -15 220 -20 176 -16 780 -23 925 -10 72 6 189 16 260 22 156 13 457 46 540 59 215 35 590 107 680 130 39 10 126 33 195 50 850 217 1707 604 2470 1117 350 235 493 343 465 353 -13 4 19 35 125 120 78 63 157 126 175 140 18 14 73 61 121 105 49 44 97 88 108 98 11 9 29 17 41 17 22 0 265 236 265 258 0 18 276 315 304 327 58 25 656 797 656 847 0 5 26 48 58 96 78 116 372 604 372 617 0 3 38 77 85 164 110 205 246 504 336 746 17 44 44 114 60 155 16 41 29 78 29 83 0 4 -3488 7 -7751 7 -6197 0 -7750 -3 -7746 -12z m3611 -90 c13 -113 26 -268 26 -316 0 -51 -3 -57 -94 -179 l-95 -126 39 -47 c70 -84 56 -87 194 50 68 67 129 121 134 119 15 -6 82 -89 82 -102 0 -7 -74 -96 -165 -199 l-165 -186 -68 -7 c-37 -3 -96 -10 -132 -15 -36 -5 -108 -14 -160 -20 -52 -6 -144 -18 -205 -26 -60 -7 -141 -17 -180 -21 l-70 -8 -53 -107 -53 -107 45 -63 c133 -185 181 -248 189 -248 5 0 46 28 90 62 l82 61 95 9 c52 4 147 13 210 19 63 6 152 13 196 16 l81 5 349 -232 348 -233 39 44 c85 96 85 77 -4 217 l-80 123 3 126 3 127 117 95 c64 53 207 170 317 261 111 91 208 166 217 168 13 3 186 -79 208 -99 5 -4 -8 -84 -30 -184 l-39 -177 -85 -82 c-47 -46 -147 -140 -223 -211 -75 -70 -137 -131 -137 -135 0 -4 57 -10 128 -14 70 -3 192 -10 272 -15 80 -5 155 -10 168 -10 21 -1 22 -5 22 -91 0 -64 4 -92 13 -94 6 -2 66 -13 132 -25 65 -12 124 -26 130 -32 11 -12 -3 -25 -125 -112 l-75 -53 3 -49 c2 -28 5 -52 7 -54 5 -4 146 15 215 30 75 16 357 59 384 59 26 0 118 -72 124 -96 2 -9 -16 -22 -45 -35 -85 -37 -444 -189 -578 -246 -71 -30 -143 -61 -160 -70 -21 -11 -79 -18 -200 -24 -93 -4 -298 -15 -455 -23 -563 -30 -668 -36 -875 -46 -115 -6 -295 -15 -400 -21 -265 -14 -710 -37 -964 -49 l-213 -11 -125 -64 c-72 -37 -131 -62 -138 -57 -28 16 -291 307 -436 482 -544 656 -973 1381 -1293 2187 -42 105 -76 194 -76 197 0 3 794 6 1764 6 l1765 0 5 -42z m10319 -113 c136 -141 157 -160 250 -212 295 -164 403 -225 411 -234 6 -5 3 -16 -7 -27 -17 -18 -14 -23 70 -104 49 -46 124 -119 169 -160 l81 -77 43 10 c23 5 45 7 48 5 11 -12 -228 -430 -391 -682 -84 -131 -95 -143 -122 -143 -16 -1 -91 19 -166 44 l-136 46 -44 92 c-23 51 -60 128 -80 172 l-38 80 -58 12 c-32 7 -73 12 -90 13 l-33 0 -2 -222 -3 -223 -175 -23 c-96 -13 -184 -25 -195 -28 -11 -2 -63 -32 -115 -67 l-95 -62 -31 -115 c-17 -63 -34 -127 -37 -141 -7 -26 1 -31 196 -145 111 -64 245 -143 297 -174 52 -32 110 -65 128 -74 17 -9 32 -22 32 -29 0 -16 -292 -332 -319 -347 -11 -5 -85 -10 -166 -10 -108 0 -147 -3 -149 -12 -2 -7 -8 -62 -14 -123 -8 -94 -8 -112 5 -122 10 -7 12 -17 6 -26 -15 -28 -319 -284 -474 -400 l-76 -57 -100 0 -100 0 -222 166 c-121 91 -221 172 -221 180 0 12 33 14 205 14 l205 0 6 27 c3 16 10 41 16 56 10 26 7 32 -36 75 -25 26 -46 53 -46 59 0 7 75 13 231 19 l230 9 30 74 c16 41 28 75 27 76 -5 4 -492 -16 -505 -20 -7 -3 -13 -15 -13 -27 0 -13 -5 -39 -10 -59 -12 -43 -21 -47 -175 -79 -60 -12 -126 -25 -145 -30 -19 -4 -72 -28 -118 -54 l-82 -46 -401 0 -400 0 -122 121 -122 120 -79 -6 c-71 -5 -87 -10 -160 -54 -100 -59 -115 -64 -405 -151 l-235 -70 -511 0 -511 0 -180 121 c-98 67 -226 154 -284 194 -112 76 -121 80 -233 95 -239 32 -254 36 -320 84 -88 65 -107 82 -107 100 0 11 9 16 28 16 15 1 72 9 127 18 l100 17 3 48 3 47 -293 0 -293 0 -95 65 c-52 35 -106 74 -120 85 l-25 20 45 42 c25 24 92 82 149 131 l104 87 357 0 c197 0 378 3 403 6 46 7 47 6 110 -55 l64 -61 335 0 334 0 75 66 c41 37 94 85 118 107 l43 40 -7 167 -7 167 96 88 c53 48 96 92 96 96 0 4 -34 32 -75 60 l-75 53 0 56 c0 30 4 91 9 135 5 44 12 121 16 171 l6 90 -201 245 c-110 134 -240 291 -288 348 -129 155 -122 140 -122 264 l0 107 2503 0 2502 0 148 -155z"></path><path id="pDgLLMNJw" d="M13504 5267 c-3 -8 3 -46 13 -84 l18 -68 54 -5 c48 -4 57 -9 71 -35 14 -25 25 -31 66 -37 27 -3 64 -7 82 -7 l32 -1 0 73 -1 72 -49 49 -49 50 -115 4 c-97 4 -117 2 -122 -11z"></path><path id="p1Do3LiU7F" d="M13082 5124 c-62 -35 -63 -36 -57 -72 26 -162 20 -150 114 -251 l88 -94 112 -5 c62 -3 116 -1 120 4 7 7 -272 410 -307 446 -4 4 -35 -9 -70 -28z"></path><path id="pLRBCKxWg" d="M14016 5061 c-33 -44 -36 -55 -36 -115 0 -77 -24 -75 178 -17 l127 36 3 73 3 72 -120 0 -119 0 -36 -49z"></path><path id="p84zyBDuZ" d="M13650 4832 l0 -121 45 -6 c46 -7 190 -3 199 5 2 3 6 36 8 73 2 63 1 70 -22 87 -47 35 -125 68 -177 75 l-53 7 0 -120z"></path><path id="pEVM8c7R2" d="M14115 4784 l-39 -35 31 -30 31 -31 48 28 c27 15 51 29 54 31 5 4 -71 72 -80 72 -3 0 -23 -16 -45 -35z"></path><path id="pGjgnTkIC" d="M13155 4610 c-33 -11 -68 -20 -77 -20 -23 0 -23 -33 0 -79 15 -30 31 -40 122 -78 100 -41 112 -43 236 -49 72 -4 143 -4 158 0 23 6 26 11 26 51 0 42 1 44 33 47 l32 3 0 70 0 70 -235 2 c-209 2 -242 0 -295 -17z"></path><path id="p8VkvfYX7" d="M13785 4622 c-6 -7 -7 -152 0 -152 8 0 125 112 125 120 0 9 -117 39 -125 32z"></path><path id="paGTjZj1p" d="M12667 4015 c-31 -63 -57 -119 -57 -124 0 -5 43 -30 96 -55 83 -41 100 -46 127 -38 18 6 57 15 88 21 l56 12 -13 57 c-8 31 -22 86 -31 121 l-18 65 -90 28 c-50 15 -92 28 -95 28 -3 0 -31 -52 -63 -115z"></path><path id="pCIIwXlNU" d="M11915 3103 c-19 -21 -35 -41 -35 -44 0 -12 261 -79 403 -103 l37 -7 0 75 c0 41 -4 77 -9 80 -5 3 -78 11 -163 16 -84 6 -163 13 -176 15 -17 4 -31 -4 -57 -32z"></path><path id="p1Fvv6mxVz" d="M11870 2660 l0 -80 85 0 86 0 6 -30 6 -30 133 0 c100 0 134 3 135 13 5 71 -5 112 -38 158 l-35 49 -189 0 -189 0 0 -80z"></path></g></g></svg>